Coordinates
version=1
nRows=24
nColumns=24
inDegrees=yes

Units are S.I. units (second, meters, Newtons, ...)
Angles are in degrees.

endheader
time	pelvis_tilt	pelvis_list	pelvis_rotation	pelvis_tx	pelvis_ty	pelvis_tz	hip_flexion_r	hip_adduction_r	hip_rotation_r	knee_angle_r	ankle_angle_r	subtalar_angle_r	mtp_angle_r	hip_flexion_l	hip_adduction_l	hip_rotation_l	knee_angle_l	ankle_angle_l	subtalar_angle_l	mtp_angle_l	lumbar_extension	lumbar_bending	lumbar_rotation
      0.75800000	      0.17457914	     -5.28731863	      5.58858020	     -0.42438783	      1.03023519	      0.31370892	     10.40499004	     10.40539655	     -2.19571940	    -11.15177616	      1.61930752	    -11.59297416	      8.77585276	     18.99436052	     -8.04998843	     -3.22974162	    -67.09080568	      0.04614843	     -2.58646060	      1.61464780	     -7.89705491	      3.09600289	      1.81678060
      0.76216667	      0.15894792	     -5.17585885	      5.57923374	     -0.41929749	      1.03094689	      0.31389336	      9.97235689	     10.33935696	     -2.11707353	    -10.91923286	      1.73529725	    -11.55971690	      8.75970507	     19.52030190	     -7.92407944	     -3.25624589	    -66.59585953	      0.50522596	     -2.89606592	      1.57666272	     -7.92920260	      2.94702927	      1.83691844
      0.76633333	      0.15142081	     -5.05692004	      5.56901823	     -0.41421572	      1.03167214	      0.31406686	      9.52488873	     10.26461562	     -2.03435381	    -10.67398962	      1.84522483	    -11.52378534	      8.73895777	     20.01319868	     -7.78352271	     -3.28154467	    -66.01844091	      0.93268933	     -3.21183845	      1.53147367	     -7.97470613	      2.78516070	      1.87381120
      0.77050000	      0.14807726	     -4.93444157	      5.56173507	     -0.40912420	      1.03239438	      0.31422179	      9.06811811	     10.18501858	     -1.95632322	    -10.42029177	      1.94922241	    -11.48276939	      8.71761229	     20.47654408	     -7.63093796	     -3.30305142	    -65.36124322	      1.34292033	     -3.51895880	      1.48823129	     -8.02159183	      2.61756269	      1.91530468
      0.77466667	      0.18964265	     -4.78553972	      5.54463413	     -0.40405334	      1.03320217	      0.31436792	      8.55245541	     10.08205491	     -1.84221725	    -10.15133723	      2.05872703	    -11.43449392	      8.65889092	     20.85351622	     -7.44583666	     -3.33124329	    -64.60276800	      1.66342658	     -3.84626852	      1.37286276	     -8.15158706	      2.43225838	      1.99909924
      0.77883333	      0.21514626	     -4.64944873	      5.52991890	     -0.39897573	      1.03394841	      0.31450663	      8.05863338	      9.98838120	     -1.75912925	     -9.88598982	      2.15575828	    -11.38827884	      8.59546684	     21.22990806	     -7.27033475	     -3.35434109	    -63.78647465	      2.03492090	     -4.12026082	      1.25726190	     -8.23849219	      2.26037812	      2.05089221
      0.78300000	      0.20812144	     -4.50239708	      5.50051296	     -0.39391463	      1.03462718	      0.31464799	      7.61281398	      9.87834654	     -1.67887444	     -9.64859447	      2.24420867	    -11.34264409	      8.54815468	     21.61321786	     -7.07293178	     -3.38245465	    -62.89611096	      2.41175796	     -4.37525257	      1.17606095	     -8.30229272	      2.08151157	      2.08442973
      0.78716667	      0.26412799	     -4.35777806	      5.48053943	     -0.38883463	      1.03539344	      0.31477271	      7.07727532	      9.77690124	     -1.59113190	     -9.36559510	      2.34744794	    -11.28259750	      8.48410201	     21.89937633	     -6.88235829	     -3.40560172	    -61.92444599	      2.72583362	     -4.61946166	      1.06732417	     -8.42414073	      1.89566212	      2.13589656
      0.79133333	      0.27694197	     -4.21675360	      5.46185848	     -0.38378574	      1.03605658	      0.31488311	      6.60394482	      9.67148837	     -1.53202505	     -9.10534759	      2.40693378	    -11.24218425	      7.59521006	     22.21575157	     -6.67734603	     -3.40414283	    -60.89929984	      3.10485094	     -4.77349826	     -0.36514285	     -8.50287373	      1.71237749	      2.30337486
      0.79550000	      0.29852710	     -4.05739593	      5.39586603	     -0.37874291	      1.03673441	      0.31504486	      6.12712493	      9.55145476	     -1.40081240	     -8.87300500	      2.54448215	    -11.18108028	      7.58203807	     22.47530384	     -6.46806387	     -3.45868767	    -59.78053139	      3.41197954	     -4.99607343	     -0.38998438	     -8.60697738	      1.52304270	      2.25057188
      0.79966667	      0.32121504	     -3.90249730	      5.34746928	     -0.37370178	      1.03737390	      0.31516997	      5.64931973	      9.43078117	     -1.31356450	     -8.63184933	      2.63434097	    -11.11812480	      7.56507715	     22.71339408	     -6.24875372	     -3.47743957	    -58.59785167	      3.70244121	     -5.17049656	     -0.41532286	     -8.70835503	      1.32783617	      2.26875563
      0.80383333	      0.34229792	     -3.75769552	      5.28990950	     -0.36867250	      1.03797347	      0.31529669	      5.17587765	      9.32002745	     -1.21498396	     -8.39040850	      2.72892744	    -11.05905125	      7.54534292	     22.92933980	     -6.03817586	     -3.49210679	    -57.35222465	      3.97092610	     -5.31728407	     -0.44392492	     -8.80599295	      1.14462455	      2.30636952
      0.80800000	      0.40344809	     -3.61440801	      5.22983171	     -0.36363723	      1.03860838	      0.31542834	      4.64980451	      9.21525851	     -1.10486652	     -8.12830091	      2.83416399	    -10.99781670	      7.51077992	     23.07158851	     -5.83344485	     -3.50811260	    -56.03354943	      4.19153854	     -5.46200786	     -0.49335262	     -8.94828709	      0.97442002	      2.37371213
      0.81216667	      0.41083272	     -3.45866942	      5.14582342	     -0.35862882	      1.03914655	      0.31556856	      4.20744006	      9.08788447	     -0.99643604	     -7.92017643	      2.91756654	    -10.94397672	      7.48410859	     23.23761408	     -5.60520791	     -3.52348612	    -54.64252219	      4.42718195	     -5.56493373	     -0.52929876	     -9.03789213	      0.77386185	      2.41615963
      0.81633333	      0.43149160	     -3.31399630	      5.05580120	     -0.35362111	      1.03965435	      0.31571664	      3.74749257	      8.97331415	     -0.87619560	     -7.70109103	      3.01659688	    -10.88982870	      7.45355456	     23.36479990	     -5.39133786	     -3.53639844	    -53.19072744	      4.61660148	     -5.67492108	     -0.57228806	     -9.14185527	      0.59184167	      2.47697036
      0.82050000	      0.45036369	     -3.18625882	      4.96158842	     -0.34861084	      1.04012277	      0.31584984	      3.29138488	      8.87386583	     -0.75542449	     -7.48077749	      3.11074520	    -10.83116350	      7.42190413	     23.46991712	     -5.19139148	     -3.53698521	    -51.68030509	      4.78841647	     -5.76721902	     -0.61648107	     -9.23458713	      0.42529047	      2.53804853
      0.82466667	      0.50033380	     -3.05721992	      4.86204711	     -0.34360906	      1.04060860	      0.31598115	      2.79767255	      8.77474428	     -0.62227974	     -7.24907536	      3.21878916	    -10.76795644	      7.36810864	     23.50878989	     -4.99074104	     -3.53450880	    -50.09438826	      4.89333605	     -5.89606940	     -0.69249860	     -9.36582765	      0.27935801	      2.63838703
      0.82883333	      0.50364314	     -2.93699767	      4.74322136	     -0.33860001	      1.04098566	      0.31612797	      2.36932550	      8.67746169	     -0.48811572	     -7.04722021	      3.32119268	    -10.70973184	      7.31303255	     23.57044085	     -4.79830914	     -3.53390304	    -48.45245880	      4.99281668	     -5.99352552	     -0.77051441	     -9.44076781	      0.12515456	      2.72017631
      0.83300000	      0.51959880	     -2.81284834	      4.61825072	     -0.33359569	      1.04133873	      0.31627107	      1.92801567	      8.57436800	     -0.35070834	     -6.84600625	      3.42478234	    -10.64857736	      7.25671074	     23.58716082	     -4.60057132	     -3.52888157	    -46.74313731	      5.05557520	     -6.10699431	     -0.85301141	     -9.53826611	     -0.03090397	      2.80310161
      0.83716667	      0.47870772	     -2.71080392	      4.47266547	     -0.32859568	      1.04156526	      0.31643217	      1.56947518	      8.48779283	     -0.21049489	     -6.68382770	      3.51723548	    -10.59800873	      7.22016174	     23.64169479	     -4.42655970	     -3.52558943	    -44.98327487	      5.11291533	     -6.18061617	     -0.91000223	     -9.56169496	     -0.17956346	      2.86473843
      0.84133333	      0.50861489	     -2.62399157	      4.34071686	     -0.32357614	      1.04185006	      0.31654917	      1.11272814	      8.42027238	     -0.06450051	     -6.47261955	      3.63028693	    -10.52230119	      7.15620535	     23.59133773	     -4.26322857	     -3.49035998	    -43.15750955	      5.07997750	     -6.35901654	     -1.01083430	     -9.65678796	     -0.27705291	      2.99214742
      0.84550000	      0.47250141	     -2.53268737	      4.17595050	     -0.31855590	      1.04199546	      0.31670956	      0.75173774	      8.33992728	      0.08492208	     -6.31450486	      3.73793458	    -10.46869411	      7.11465707	     23.58208747	     -4.10783743	     -3.49983536	    -41.27961368	      5.06103344	     -6.45799709	     -1.08027551	     -9.68921568	     -0.40468946	      3.06718309
      0.84966667	      0.45907492	     -2.45473472	      4.01221938	     -0.31350988	      1.04213309	      0.31684139	      0.35920801	      8.27202509	      0.23792820	     -6.14093076	      3.85156444	    -10.39938521	      7.07245107	     23.51707997	     -3.96183829	     -3.48827293	    -39.33984613	      4.98778011	     -6.61402512	     -1.15493234	     -9.73112117	     -0.50555670	      3.17039132
      0.85383333	      0.46348703	     -2.40610280	      3.85490760	     -0.30844808	      1.04224576	      0.31693780	     -0.05892542	      8.23351867	      0.39112584	     -5.95022512	      3.97491184	    -10.31248542	      7.00775215	     23.41138363	     -3.83839394	     -3.44121014	    -37.35077040	      4.85364244	     -6.85444659	     -1.26738645	     -9.77451094	     -0.56172335	      3.31921183
